<svg version="1.2" xmlns="http://www.w3.org/2000/svg" viewBox="0 0 1865 325" width="1865" height="325"><style>.a{fill:#fff}</style><path class="a" d="m198 185.9q12.6 8.1 29.7 8.1 13.5 0 25.2-2.7 12.2-2.7 21.2-6.3 3.6-1.3 6.3-1.3 6.7 0 8 9.4l14.5 99.5q2.7 15.7-10 20.2-17 6.3-32.3 9-15.4 2.7-30.2 2.7-26.6 0-44.1-7.2-17.6-7.7-28.3-22.1-10.8-14.8-15.8-35.5-4.5-21.1-4.9-48.1 0-8.2-8.6-8.2-7.6 0-7.6 8.2l4.5 94.9q0.9 13.5-13.1 13.5h-99q-13.5 0-13.5-13.5v-288q0-13.5 13.5-13.5h135.5q32.8 0 58.9 5.4 26.1 4.9 44.5 15.7 18.5 10.8 28.4 27.5 9.9 16.2 9.9 39.1 0 20.3-5.8 34.2-5.5 14-16.7 23.4-11.3 9.5-28.4 14.9-16.6 5.4-39.1 9-5.9 0.4-7.2 4-1.3 3.6 4.5 7.7zm-60.8-45.9h11.8q7.2 0 10.3-3.6 3.2-3.6 3.2-8.1 0-4.1-3.2-7.2-3.1-3.6-10.3-3.6h-11.8q-11.2 0-11.2 11.2 0 11.3 11.3 11.3zm329.8-2.3q-4.9-15.7-19.3-15.7-10.3 0-16.2 10.8-5.9 10.8-5.9 29.2 0 18.9 7.7 30.2 8.1 10.8 21.6 10.8 19.4 0 25.6-16.7 5-13 16.7-13h101.7q14 0 12.6 13.5-3.1 35.5-15.7 61.6-12.2 26.1-32.4 43.2-20.3 16.7-47.8 24.8-27 8.1-60.7 8.1-34.2 0-63.5-9.5-28.8-9.4-49.9-29.2-20.7-20.3-32.4-50.9-11.7-30.6-11.7-72.4 0-41.9 11.2-72.5 11.3-30.6 31.1-50.4 20.2-19.8 47.7-29.2 27.9-9.9 60.7-9.9 32 0 58.1 8.1 26.1 8.1 45.4 25.2 19.4 16.6 31.1 42.7 11.7 25.7 14.9 60.8 1.3 13.5-12.7 13.5h-101.7q-11.7 0-16.2-13.1zm382.1 104.4l-30.2 65.8q-5.4 12.1-18.9 12.1h-12.1q-13.5 0-18.9-12.1l-30.2-65.8q-1.8-4-4.5-6.7-2.7-3.2-9-3.2-4.5 0-6.3 3.2-1.3 3.1-0.9 7.6l5.4 63.5q1.4 13.5-12.1 13.5h-81q-13.5 0-13.5-13.5v-288q0-13.5 13.5-13.5h86.8q12.6 0 20.3 11.7l43.2 66.6q2.2 3.6 4.9 6.3 3.2 2.2 8.6 2.2 5.4 0 8.1-2.2 3.1-2.7 5.4-6.3l42.7-66.6q7.7-11.7 20.3-11.7h86.9q13.5 0 13.5 13.5v288q0 13.5-13.5 13.5h-81q-13.6 0-12.2-13.5l5.4-63.5q0.4-4.5-0.9-7.6-1.3-3.2-6.3-3.2-5.9 0-9 3.2-2.7 2.7-4.5 6.7zm153.3-237.1h153.4q65.8 0 101.3 21.6 36 21.6 36 68.4 0 39.1-34.7 59.4-3.6 2.2-4.5 4-0.8 1.4-0.8 3.6 0 2.3 0.8 4.1 1.4 1.8 5 4 38.7 21.2 38.7 59.9 0 23.4-9.9 40.5-9.9 17.1-28.4 28.3-18.4 10.8-44.5 16.2-26.1 5-59 5h-153.4q-13.5 0-13.5-13.5v-288q0-13.5 13.5-13.5zm123.7 135h25.2q7.3 0 10.4-3.6 3.1-3.6 3.1-8.1 0-4.1-3.1-7.2-3.1-3.6-10.4-3.6h-25.2q-11.2 0-11.2 11.2 0 11.3 11.2 11.3zm0 67.5h29.7q7.3 0 10.4-3.2 3.1-3.6 3.1-7.6 0-4.5-3.1-8.1-3.1-3.6-10.4-3.6h-29.7q-11.2 0-11.2 11.2 0 11.3 11.2 11.3zm411.5 0h-32.8q-16.7 0-16.7 16.6v82.4q0 13.5-13.5 13.5h-99q-13.5 0-13.5-13.5v-82.4q0-16.6-16.6-16.6h-32.9q-13.5 0-13.5-13.5v-175.5q0-13.5 13.5-13.5h225q13.5 0 13.5 13.5v175.5q0 13.5-13.5 13.5zm194-83.3q-5.4-11.2-17.5-11.2-14 0-14 10.3 0 8.1 12.2 12.2 12.1 3.6 30.1 6.7 18.5 2.7 39.7 6.8 21.1 4 39.1 13 18.4 9 30.6 25.2 12.1 15.8 12.1 42.3 0 22.1-10.3 40.1-9.9 17.5-28.8 29.7-18.9 12.1-46.4 18.9-27 6.3-60.7 6.3-145.4 0-158.4-123.3-1.4-13.5 12.6-13.5h101.7q5.8 0 9.5 3.1 4 2.7 7.6 9.9 5.9 11.3 20.2 11.3 15.8 0 15.8-10.4 0-8.1-12.1-11.7-12.2-4-30.7-6.7-18-3.2-39.1-7.2-21.2-4.1-39.6-13.1-18-9-30.1-24.7-12.2-16.2-12.2-42.8 0-22.5 9.9-40 9.9-17.6 28.3-29.7 19-12.2 45.5-18.5 26.5-6.7 59.8-6.7 75.2 0 113 31 37.8 30.6 43.7 92.3 1.3 13.5-12.7 13.5h-101.7q-6.3 0-9.9-2.7-3.6-3.2-7.2-10.4z"/></svg>