<svg version="1.2" xmlns="http://www.w3.org/2000/svg" viewBox="0 0 1186 360" width="1186" height="360"><style></style><path  d="m0 5v350h90v-125h1c5 0 5 1 5 8v45c0 27 0.5 50 5 72h90c-4.5-21.5-5-44.5-5-71v-4c0-53.5-30-86-51-86v-6c21.5 0 51-28.5 51-87v-2.5c0-63.5-34.5-93.5-94-93.5zm90 78h1c5 0 5 1 5 7.5v53.5c0 7 0 8-5 8h-1zm192 3c0-6 1-8 3-8 2 0 3 2 3 8v89h90v-82.5c0-59-34.5-92.5-94.5-92.5-59 0-91.5 32-91.5 92.5v174.5c0 60.5 32.5 93 91.5 93 60 0 94.5-33.5 94.5-93v-82h-90v89c0 5.5-1 8-3 8-2 0-3-2.5-3-8zm102-81v350h82.5l-10.5-190h6l12 190h55l12-190h6l-10.5 190h82.5v-350h-114v192h-6v-192zm241 0v350h92c61.5 0 99-32 99-86v-6.5c0-51.5-35-83.5-56-83.5v-6c22 0 51-27 51-79.5v-2.5c0-55-34.5-86-94-86zm90 78h1c5 0 5 1 5 8v38c0 7 0 8-5 8h-1zm0 132h1c5 0 5 1 5 8v46c0 7 0 8-5 8h-1zm280-210h-180v78h45v272h90v-272h45zm191 120v-32.5c0-59-34.5-92.5-94.5-92.5-59 0-91.5 32-91.5 92.5v4.5c0 58.5 9.5 83.5 44.5 103l16 9c34.5 19.5 35.5 21.5 35.5 36v29.5c0 5-1 7.5-3 7.5-2 0-3-2.5-3-8v-39h-90v32c0 60.5 32 93 91.5 93 60 0 94.5-33.5 94.5-93v-6.5c0-58.5-9-81.5-43-100.5l-13.5-7.5c-38.5-21.5-39.5-24-39.5-38.5v-28c0-5.5 1-8 3-8 2 0 3 2.5 3 8v39z"/></svg>