<svg version="1.2" xmlns="http://www.w3.org/2000/svg" viewBox="0 0 1230 274" width="1230" height="274"><style>.a{fill:#ffffff}</style><path class="a" d="m0.3 4v266h68.4v-95h0.7c3.8 0 3.8 0.8 3.8 6.1v34.2c0 20.5 0.4 38 3.8 54.7h68.4c-3.4-16.3-3.8-33.8-3.8-54v-3c0-40.7-22.8-65.4-38.7-65.4v-4.5c16.3 0 38.7-21.7 38.7-66.1v-1.9c0-48.3-26.2-71.1-71.4-71.1zm68.4 59.3h0.8c3.8 0 3.8 0.7 3.8 5.7v40.6c0 5.4 0 6.1-3.8 6.1h-0.8zm76.6-59.3v266h68.4v-266zm141.4 61.6c0-4.6 0.8-6.1 2.3-6.1 1.5 0 2.3 1.5 2.3 6.1v67.6h68.4v-62.7c0-44.8-26.3-70.3-71.9-70.3-44.8 0-69.5 24.4-69.5 70.3v132.7c0 45.9 24.7 70.6 69.5 70.6 45.6 0 71.9-25.4 71.9-70.6v-62.4h-68.4v67.7c0 4.2-0.8 6.1-2.3 6.1-1.5 0-2.3-1.9-2.3-6.1zm176.4-2.3v-59.3h-98.8v266h98.8v-59.3h-30.4v-51.3h30.4v-59.2h-30.4v-36.9zm5.2-59.3v266h62.7l-8-144.4h4.6l9.1 144.4h41.8l9.1-144.4h4.6l-8 144.4h62.7v-266h-86.6v145.9h-4.6v-145.9zm183 0v266h69.9c46.8 0 75.3-24.3 75.3-65.3v-5c0-39.1-26.6-63.4-42.6-63.4v-4.6c16.7 0 38.8-20.5 38.8-60.4v-1.9c0-41.8-26.3-65.4-71.5-65.4zm68.4 59.3h0.8c3.8 0 3.8 0.8 3.8 6.1v28.9c0 5.3 0 6-3.8 6h-0.8zm0 100.4h0.8c3.8 0 3.8 0.7 3.8 6v35c0 5.3 0 6.1-3.8 6.1h-0.8zm212.7-159.6h-136.8v59.3h34.2v206.7h68.4v-206.7h34.2zm83 0l17.1 145.9h-3.8l-19-145.9h-73.4v266h68.4l-15.6-144.4h3.8l17.5 144.4h73.4v-266zm214.3 91.2v-24.7c0-44.9-26.2-70.3-71.8-70.3-44.9 0-69.6 24.3-69.6 70.3v3.4c0 44.4 7.2 63.4 33.8 78.3l12.2 6.8c26.2 14.8 27 16.3 27 27.4v22.4c0 3.8-0.8 5.7-2.3 5.7-1.5 0-2.3-1.9-2.3-6.1v-29.6h-68.4v24.3c0 46 24.3 70.7 69.6 70.7 45.6 0 71.8-25.5 71.8-70.7v-5c0-44.4-6.9-61.9-32.7-76.3l-10.3-5.7c-29.2-16.4-30-18.3-30-29.3v-21.3c0-4.2 0.8-6.1 2.3-6.1 1.5 0 2.3 1.9 2.3 6.1v29.7z"/></svg>